<?xml version="1.0" encoding="UTF-8"?>
<svg id="_レイヤー_1" data-name="レイヤー 1" xmlns="http://www.w3.org/2000/svg" viewBox="0 0 512 512">
  <defs>
    <style>
      .cls-1 {
        fill: #9fccce;
      }

      .cls-2 {
        fill: #fff;
      }

      .cls-3 {
        fill: none;
        stroke: #fff;
        stroke-linecap: round;
        stroke-miterlimit: 10;
        stroke-width: 8px;
      }
    </style>
  </defs>
  <rect class="cls-2" width="512" height="512"/>
  <g>
    <g>
      <g>
        <path class="cls-1" d="M353.71,420.31h-195.43c-1.93,0-3.55-1.22-3.75-2.83l-31.08-248.18c-.23-1.86,1.51-3.48,3.75-3.48h257.59c2.24,0,3.98,1.62,3.75,3.48l-31.08,248.18c-.2,1.61-1.82,2.83-3.75,2.83Z"/>
        <path class="cls-1" d="M384.79,166.82c.91,0,1.76.35,2.28.94.26.29.55.78.47,1.42l-31.08,248.18c-.14,1.09-1.35,1.95-2.76,1.95h-195.43c-1.41,0-2.62-.86-2.76-1.95l-31.08-248.18c-.08-.64.21-1.12.47-1.42.52-.59,1.37-.94,2.28-.94h257.59M384.79,165.82H127.21c-2.24,0-3.98,1.62-3.75,3.48l31.08,248.18c.2,1.61,1.82,2.83,3.75,2.83h195.43c1.93,0,3.55-1.22,3.75-2.83l31.08-248.18c.23-1.86-1.51-3.48-3.75-3.48h0Z"/>
      </g>
      <g>
        <path class="cls-1" d="M398.34,123.07h-23.64v-8.31c0-1.99-1.61-3.59-3.59-3.59h-91.57v-15.71c0-2.08-1.69-3.77-3.77-3.77h-39.54c-2.08,0-3.77,1.69-3.77,3.77v15.71h-91.57c-1.99,0-3.59,1.61-3.59,3.59v8.31h-23.64c-2.08,0-3.77,1.69-3.77,3.77v21.69c0,2.08,1.69,3.77,3.77,3.77h284.69c2.08,0,3.77-1.69,3.77-3.77v-21.69c0-2.08-1.69-3.77-3.77-3.77Z"/>
        <path class="cls-1" d="M275.77,92.69c1.53,0,2.77,1.24,2.77,2.77v16.71h92.57c1.43,0,2.59,1.16,2.59,2.59v9.31h24.64c1.53,0,2.77,1.24,2.77,2.77v21.69c0,1.53-1.24,2.77-2.77,2.77H113.66c-1.53,0-2.77-1.24-2.77-2.77v-21.69c0-1.53,1.24-2.77,2.77-2.77h24.64v-9.31c0-1.43,1.16-2.59,2.59-2.59h92.57v-16.71c0-1.53,1.24-2.77,2.77-2.77h39.54M275.77,91.69h-39.54c-2.08,0-3.77,1.69-3.77,3.77v15.71h-91.57c-1.99,0-3.59,1.61-3.59,3.59v8.31h-23.64c-2.08,0-3.77,1.69-3.77,3.77v21.69c0,2.08,1.69,3.77,3.77,3.77h284.69c2.08,0,3.77-1.69,3.77-3.77v-21.69c0-2.08-1.69-3.77-3.77-3.77h-23.64v-8.31c0-1.99-1.61-3.59-3.59-3.59h-91.57v-15.71c0-2.08-1.69-3.77-3.77-3.77h0Z"/>
      </g>
    </g>
    <line class="cls-3" x1="256" y1="208.34" x2="256" y2="386.84"/>
    <line class="cls-3" x1="178.69" y1="208.74" x2="197.42" y2="386.44"/>
    <line class="cls-3" x1="335.07" y1="208.74" x2="316.34" y2="386.44"/>
  </g>
</svg>